<svg id="Warstwa_3" data-name="Warstwa 3" xmlns="http://www.w3.org/2000/svg" viewBox="0 0 1896.88 1649.01">
  <defs>
    <style>
      .cls-1 {
        fill: none;
        stroke: #000;
        stroke-miterlimit: 10;
        stroke-width: 10px;
      }
    </style>
  </defs>
  <title>mtstl_logo_only_clear</title>
  <path class="cls-1" d="M63.35,1805.45l647.92-382.16.7-338.64,294.41-176.58,13.8.36,281.32,176.92L1316,1423.29l633.05,368.36,1.06-1075-929.58-546-28.31-.35L77.51,702.13Z" transform="translate(-58.24 -165.26)"/>
  <polyline class="cls-1" points="139.58 1559.51 137.46 615.42 948.85 151.51 1761.31 622.5 1765.55 1550.31"/>
  <polyline class="cls-1" points="1634.11 1475.77 1635.7 695.52 948.86 298.49 267.33 693.39 267.33 1482.67"/>
  <polyline class="cls-1" points="396.85 1408.36 395.25 762.93 950.46 448.7 1506.72 768.23 1509.37 1401.99"/>
  <polyline class="cls-1" points="1375.09 1323.44 1375.62 844.67 949.93 598.38 522.64 843.61 521.58 1329.81"/>
</svg>
