<svg id="Warstwa_1" data-name="Warstwa 1" xmlns="http://www.w3.org/2000/svg" viewBox="0 0 2000 2000"><defs><style>.cls-1{fill:#fff;}</style></defs><title>Obszar roboczy 1</title><path class="cls-1" d="M1507,736a18,18,0,0,1-18-18V612.34A101.45,101.45,0,0,0,1387.66,511H1277a18,18,0,0,1-18-18V464.48a18,18,0,0,1,18-18h133.18c79,0,143.34,64.3,143.34,143.34V718a18,18,0,0,1-18,18Z"/><path d="M1410.16,456.5A133.33,133.33,0,0,1,1543.5,589.84V718a8,8,0,0,1-8,8H1507a8,8,0,0,1-8-8V612.34A111.47,111.47,0,0,0,1387.66,501H1277a8,8,0,0,1-8-8V464.48a8,8,0,0,1,8-8h133.18m0-20H1277a28,28,0,0,0-28,28V493a28,28,0,0,0,28,28h110.68A91.33,91.33,0,0,1,1479,612.34V718a28,28,0,0,0,28,28h28.54a28,28,0,0,0,28-28V589.84A153.34,153.34,0,0,0,1410.16,436.5Z"/><path class="cls-1" d="M589.84,1553.5c-79,0-143.34-64.3-143.34-143.34V589.84c0-79,64.3-143.34,143.34-143.34H1040a18,18,0,0,1,18,18V493a18,18,0,0,1-18,18H612.34A101.45,101.45,0,0,0,511,612.34v775.32A101.45,101.45,0,0,0,612.34,1489h775.32A101.45,101.45,0,0,0,1489,1387.66V955a18,18,0,0,1,18-18h28.54a18,18,0,0,1,18,18v455.18c0,79-64.3,143.34-143.34,143.34Z"/><path d="M1040,456.5a8,8,0,0,1,8,8V493a8,8,0,0,1-8,8H612.34A111.47,111.47,0,0,0,501,612.34v775.32A111.47,111.47,0,0,0,612.34,1499h775.32A111.47,111.47,0,0,0,1499,1387.66V955a8,8,0,0,1,8-8h28.54a8,8,0,0,1,8,8v455.18a133.33,133.33,0,0,1-133.34,133.34H589.84A133.33,133.33,0,0,1,456.5,1410.16V589.84A133.33,133.33,0,0,1,589.84,456.5H1040m0-20H589.84A153.34,153.34,0,0,0,436.5,589.84v820.32A153.34,153.34,0,0,0,589.84,1563.5h820.32a153.34,153.34,0,0,0,153.34-153.34V955a28,28,0,0,0-28-28H1507a28,28,0,0,0-28,28v432.68a91.33,91.33,0,0,1-91.34,91.34H612.34A91.33,91.33,0,0,1,521,1387.66V612.34A91.33,91.33,0,0,1,612.34,521H1040a28,28,0,0,0,28-28V464.48a28,28,0,0,0-28-28Z"/></svg>